<svg width="124" height="28" viewBox="0 0 124 28" fill="none" xmlns="http://www.w3.org/2000/svg">
<g clip-path="url(#clip0_14_12860)">
<path d="M26.4618 12.3748H13.2236V14.1627H26.4618V12.3748Z" fill="#4580FF"/>
<path d="M25.6092 8.51349L12.959 12.4149L13.4859 14.1234L26.1361 10.222L25.6092 8.51349Z" fill="#4580FF"/>
<path d="M23.657 5.07009L12.7197 12.5282L13.727 14.0054L24.6643 6.54725L23.657 5.07009Z" fill="#4580FF"/>
<path d="M20.777 2.36074L12.5234 12.7109L13.9213 13.8256L22.1749 3.47544L20.777 2.36074Z" fill="#4580FF"/>
<path d="M17.2283 0.619468L12.3916 12.9424L14.0559 13.5956L18.8926 1.2727L17.2283 0.619468Z" fill="#4580FF"/>
<path d="M13.3233 0.00109958L12.333 13.2021L14.1159 13.3359L15.1062 0.134843L13.3233 0.00109958Z" fill="#4580FF"/>
<path d="M11.1493 0.162624L9.40625 0.560556L12.3527 13.4666L14.0957 13.0687L11.1493 0.162624Z" fill="#4580FF"/>
<path d="M7.37845 1.35605L5.83008 2.25L12.4491 13.7146L13.9975 12.8206L7.37845 1.35605Z" fill="#4580FF"/>
<path d="M4.12728 3.6092L2.91113 4.91977L12.6149 13.9245L13.8311 12.6139L4.12728 3.6092Z" fill="#4580FF"/>
<path d="M1.68382 6.7182L0.908203 8.3291L12.8358 14.072L13.6114 12.4611L1.68382 6.7182Z" fill="#4580FF"/>
<path d="M0.266429 10.4108L0 12.1787L13.0903 14.1514L13.3568 12.3835L0.266429 10.4108Z" fill="#4580FF"/>
<path d="M13.0903 12.3848L0 14.3575L0.266429 16.1255L13.3568 14.1528L13.0903 12.3848Z" fill="#4580FF"/>
<path d="M12.8348 12.4641L0.907227 18.207L1.68285 19.8179L13.6104 14.075L12.8348 12.4641Z" fill="#4580FF"/>
<path d="M12.6149 12.6116L2.91113 21.6163L4.12728 22.9269L13.8311 13.9222L12.6149 12.6116Z" fill="#4580FF"/>
<path d="M12.4491 12.8216L5.83008 24.2862L7.37845 25.1801L13.9975 13.7156L12.4491 12.8216Z" fill="#4580FF"/>
<path d="M12.3527 13.0705L9.40625 25.9766L11.1493 26.3745L14.0957 13.4684L12.3527 13.0705Z" fill="#4580FF"/>
<path d="M14.1159 13.201L12.333 13.3348L13.3233 26.5358L15.1062 26.4021L14.1159 13.201Z" fill="#4580FF"/>
<path d="M14.0559 12.9414L12.3916 13.5946L17.2283 25.9175L18.8926 25.2643L14.0559 12.9414Z" fill="#4580FF"/>
<path d="M13.9223 12.7114L12.5244 13.8261L20.778 24.1763L22.1759 23.0616L13.9223 12.7114Z" fill="#4580FF"/>
<path d="M13.728 12.5316L12.7207 14.0088L23.658 21.4669L24.6653 19.9898L13.728 12.5316Z" fill="#4580FF"/>
<path d="M13.4859 12.4136L12.959 14.1221L25.6092 18.0235L26.1361 16.315L13.4859 12.4136Z" fill="#4580FF"/>
<path d="M19.3401 13.2673C19.3401 14.8231 16.605 18.4673 13.2311 18.4673C9.85716 18.4673 7.12207 14.8231 7.12207 13.2673C7.12207 11.7115 9.85716 8.06738 13.2311 8.06738C16.605 8.06738 19.3401 11.7115 19.3401 13.2673Z" fill="white"/>
<mask id="mask0_14_12860" style="mask-type:alpha" maskUnits="userSpaceOnUse" x="9" y="9" width="8" height="8">
<circle cx="13.2305" cy="13.2637" r="3.58204" fill="white"/>
</mask>
<g mask="url(#mask0_14_12860)">
<circle cx="13.2311" cy="13.2643" r="3.04266" fill="#4580FF"/>
</g>
<mask id="mask1_14_12860" style="mask-type:alpha" maskUnits="userSpaceOnUse" x="10" y="10" width="7" height="7">
<circle cx="13.2009" cy="13.1294" r="3.04266" fill="#3F42FF"/>
</mask>
<g mask="url(#mask1_14_12860)">
<circle cx="14.7225" cy="11.6081" r="1.52135" fill="white"/>
</g>
</g>
<path d="M44.8316 22.6427H31.3852V18.9731L37.278 14.0713C38.2959 13.1963 39.028 12.4374 39.4745 11.7945C39.9209 11.1517 40.1441 10.4731 40.1441 9.75882V9.49096C40.1441 8.70525 39.912 8.11596 39.4477 7.72311C38.9834 7.31239 38.3584 7.10703 37.5727 7.10703C36.6798 7.10703 35.9923 7.36596 35.5102 7.88382C35.028 8.40168 34.6887 9.01775 34.4923 9.73203L30.9834 8.39275C31.1977 7.74989 31.4923 7.14275 31.8673 6.57132C32.2423 5.98204 32.7155 5.47311 33.287 5.04454C33.8763 4.61597 34.5548 4.27668 35.3227 4.02668C36.0905 3.75883 36.9745 3.6249 37.9745 3.6249C38.9923 3.6249 39.903 3.76776 40.7066 4.05347C41.5102 4.33918 42.1887 4.73204 42.7423 5.23204C43.2959 5.73204 43.7155 6.33025 44.0012 7.02668C44.2869 7.70525 44.4298 8.44632 44.4298 9.24989C44.4298 10.0356 44.2959 10.7588 44.028 11.4195C43.778 12.0624 43.4209 12.6695 42.9566 13.241C42.5102 13.8124 41.9744 14.366 41.3495 14.9017C40.7423 15.4374 40.0905 15.9731 39.3941 16.5088L35.8316 19.2677H44.8316V22.6427Z" fill="#283F70"/>
<path d="M48.2765 22.6427V19.4017H53.3122V6.86596H53.0711L49.2675 11.8481L46.6961 9.83917L51.1693 3.94633H57.33V19.4017H61.2943V22.6427H48.2765Z" fill="#283F70"/>
<path d="M69.9624 22.9641C67.641 22.9641 65.882 22.3213 64.6856 21.0356C63.4892 19.7499 62.891 17.9999 62.891 15.7856C62.891 14.6606 63.0428 13.6517 63.3463 12.7588C63.6678 11.8481 64.1142 11.0802 64.6856 10.4552C65.2749 9.81239 65.9803 9.33025 66.8017 9.00882C67.641 8.66953 68.5785 8.49989 69.6142 8.49989C70.6499 8.49989 71.5785 8.66953 72.3999 9.00882C73.2213 9.33025 73.9177 9.79453 74.4892 10.4017C75.0606 11.0088 75.4981 11.7499 75.8017 12.6249C76.1231 13.482 76.2838 14.4463 76.2838 15.5177V16.6963H66.8285V16.9374C66.8285 17.8302 67.1053 18.5534 67.6588 19.107C68.2124 19.6427 69.0249 19.9106 70.0963 19.9106C70.9178 19.9106 71.6231 19.7588 72.2124 19.4552C72.8017 19.1338 73.3106 18.7142 73.7392 18.1963L75.882 20.5267C75.3463 21.1874 74.5963 21.7588 73.632 22.2409C72.6677 22.7231 71.4445 22.9641 69.9624 22.9641ZM69.641 11.3392C68.7838 11.3392 68.0963 11.607 67.5785 12.1427C67.0785 12.6606 66.8285 13.366 66.8285 14.2588V14.4731H72.3999V14.2588C72.3999 13.3481 72.1499 12.6338 71.6499 12.116C71.1678 11.5981 70.4981 11.3392 69.641 11.3392Z" fill="#283F70"/>
<path d="M88.8626 8.82132H92.9072L86.3983 24.8659C85.9876 25.8838 85.443 26.6606 84.7644 27.1963C84.0858 27.732 83.1573 27.9999 81.9787 27.9999H79.2466V24.9195H82.568L83.4251 22.5624L77.8537 8.82132H82.1126L84.1215 14.6338L85.3805 18.6517H85.5948L86.8001 14.6338L88.8626 8.82132Z" fill="#283F70"/>
<path d="M101.549 22.9641C99.2271 22.9641 97.4682 22.3213 96.2718 21.0356C95.0754 19.7499 94.4771 17.9999 94.4771 15.7856C94.4771 14.6606 94.6289 13.6517 94.9325 12.7588C95.2539 11.8481 95.7004 11.0802 96.2718 10.4552C96.8611 9.81239 97.5664 9.33025 98.3878 9.00882C99.2271 8.66953 100.165 8.49989 101.2 8.49989C102.236 8.49989 103.165 8.66953 103.986 9.00882C104.807 9.33025 105.504 9.79453 106.075 10.4017C106.647 11.0088 107.084 11.7499 107.388 12.6249C107.709 13.482 107.87 14.4463 107.87 15.5177V16.6963H98.4146V16.9374C98.4146 17.8302 98.6914 18.5534 99.245 19.107C99.7986 19.6427 100.611 19.9106 101.682 19.9106C102.504 19.9106 103.209 19.7588 103.799 19.4552C104.388 19.1338 104.897 18.7142 105.325 18.1963L107.468 20.5267C106.932 21.1874 106.182 21.7588 105.218 22.2409C104.254 22.7231 103.031 22.9641 101.549 22.9641ZM101.227 11.3392C100.37 11.3392 99.6825 11.607 99.1646 12.1427C98.6646 12.6606 98.4146 13.366 98.4146 14.2588V14.4731H103.986V14.2588C103.986 13.3481 103.736 12.6338 103.236 12.116C102.754 11.5981 102.084 11.3392 101.227 11.3392Z" fill="#283F70"/>
<path d="M116.806 22.9641C115.27 22.9641 113.931 22.732 112.788 22.2677C111.663 21.8034 110.815 21.1695 110.243 20.3659L112.467 18.3034C113.002 18.8927 113.627 19.357 114.342 19.6963C115.074 20.0177 115.904 20.1784 116.833 20.1784C117.618 20.1784 118.234 20.0624 118.681 19.8302C119.127 19.5802 119.351 19.2052 119.351 18.7052C119.351 18.3124 119.199 18.0445 118.895 17.9017C118.592 17.7409 118.172 17.6159 117.636 17.5267L115.413 17.1784C114.788 17.0892 114.208 16.9552 113.672 16.7767C113.136 16.5802 112.672 16.3213 112.279 15.9999C111.886 15.6784 111.574 15.2856 111.342 14.8213C111.109 14.357 110.993 13.7945 110.993 13.1338C110.993 11.6874 111.547 10.5535 112.654 9.73203C113.761 8.9106 115.315 8.49989 117.315 8.49989C118.672 8.49989 119.824 8.68739 120.77 9.06239C121.734 9.41953 122.502 9.93739 123.074 10.616L121.092 12.866C120.681 12.4195 120.154 12.0445 119.511 11.741C118.868 11.4374 118.092 11.2856 117.181 11.2856C115.645 11.2856 114.877 11.7499 114.877 12.6785C114.877 13.0892 115.029 13.3749 115.333 13.5356C115.636 13.6785 116.056 13.7945 116.592 13.8838L118.788 14.232C119.413 14.3213 119.993 14.4642 120.529 14.6606C121.065 14.8392 121.529 15.0892 121.922 15.4106C122.333 15.732 122.654 16.1249 122.886 16.5892C123.118 17.0534 123.234 17.6159 123.234 18.2767C123.234 19.7231 122.672 20.8659 121.547 21.7052C120.44 22.5445 118.859 22.9641 116.806 22.9641Z" fill="#283F70"/>
<defs>
<clipPath id="clip0_14_12860">
<rect width="26.4616" height="26.5357" fill="white"/>
</clipPath>
</defs>
</svg>
