<svg xmlns="http://www.w3.org/2000/svg" version="1.1" viewBox="-5.0 -10.0 110.0 135.0">
 <path d="m4.6875 16.801v62.289c0 3.2656 1.2969 6.3984 3.6055 8.707 2.3086 2.3086 5.4414 3.6055 8.707 3.6055h61.953c6.5469 0 11.852-5.3086 11.852-11.855v-11.383h0.66406c1.0195 0 1.9961-0.40625 2.7188-1.1289 0.71875-0.71875 1.125-1.6953 1.125-2.7188v-15.352c0-1.0195-0.40625-1.9961-1.125-2.7188-0.72266-0.72266-1.6992-1.125-2.7188-1.125h-0.66406v-11.383c0-3.1445-1.2461-6.1602-3.4727-8.3828-2.2227-2.2227-5.2383-3.4727-8.3828-3.4727h-1.4258v-11.715c0-0.86328-0.69922-1.5625-1.5625-1.5625h-63.078c-2.1758 0-4.2578 0.86328-5.7969 2.4023-1.5391 1.5391-2.4023 3.6211-2.4023 5.7969zm3.125 6.4453v55.844c0 2.4375 0.96875 4.7734 2.6914 6.4961 1.7266 1.7227 4.0586 2.6914 6.4961 2.6914h61.953c4.8203 0 8.7266-3.9102 8.7266-8.7305v-11.383h-19.547c-6.3594 0-11.516-5.1562-11.516-11.516v-0.011719c0-6.3633 5.1562-11.516 11.516-11.516h19.547v-11.383c0-2.3164-0.91797-4.5352-2.5547-6.1719-1.6367-1.6367-3.8555-2.5586-6.1719-2.5586h-66.09-0.17578l-0.035156-0.003906c-1.5391-0.042968-2.9727-0.50781-4.1875-1.2891-0.22656-0.14453-0.44531-0.30078-0.65625-0.46875zm60.324 25h23.332c0.19141 0 0.37109 0.074218 0.50781 0.21094 0.13281 0.13281 0.21094 0.32031 0.21094 0.50781v15.352c0 0.19141-0.074219 0.375-0.21094 0.50781-0.13672 0.13281-0.32031 0.21094-0.50781 0.21094h-23.332c-4.6367 0-8.3945-3.7578-8.3945-8.3945v-0.007813c0-4.6367 3.7578-8.3945 8.3945-8.3945zm-0.94922 5.3672v6.0547c0 0.86328 0.69922 1.5625 1.5625 1.5625s1.5625-0.69922 1.5625-1.5625v-6.0547c0-0.86328-0.69922-1.5625-1.5625-1.5625s-1.5625 0.69922-1.5625 1.5625zm4.6875 0v6.0547c0 0.86328 0.69922 1.5625 1.5625 1.5625s1.5625-0.69922 1.5625-1.5625v-6.0547c0-0.86328-0.69922-1.5625-1.5625-1.5625s-1.5625 0.69922-1.5625 1.5625zm-58.984-31.734h61.512v-10.152h-61.516c-1.3477 0-2.6367 0.53516-3.5859 1.4883-0.95312 0.94922-1.4883 2.2422-1.4883 3.5859v0.003907c0 0.074218 0.003906 0.14844 0.007812 0.22656v0.015625c0.039063 0.83203 0.28125 1.6367 0.69922 2.3438 0.4375 0.73828 1.0547 1.3516 1.7891 1.7891l0.011718 0.007812c0.69922 0.41016 1.4922 0.64844 2.3125 0.6875l0.011719 0.003906c0.082031 0.003906 0.16406 0.003906 0.24219 0.003906z" fill-rule="evenodd"/>
<text x="0.0" y="117.5" font-size="5.0" font-weight="bold" font-family="Arbeit Regular, Helvetica, Arial-Unicode, Arial, Sans-serif" fill="#000000">Created by Firza Alamsyah</text><text x="0.0" y="122.5" font-size="5.0" font-weight="bold" font-family="Arbeit Regular, Helvetica, Arial-Unicode, Arial, Sans-serif" fill="#000000">from Noun Project</text></svg>